<?xml version="1.0" standalone="no"?>
<!DOCTYPE svg PUBLIC "-//W3C//DTD SVG 20010904//EN"
 "http://www.w3.org/TR/2001/REC-SVG-20010904/DTD/svg10.dtd">
<svg version="1.0" xmlns="http://www.w3.org/2000/svg"
 width="412.000000pt" height="412.000000pt" viewBox="0 0 412.000000 412.000000"
 preserveAspectRatio="xMidYMid meet">
<metadata>
Created by potrace 1.16, written by Peter Selinger 2001-2019
</metadata>
<g transform="translate(0.000000,412.000000) scale(0.100000,-0.100000)"
fill="#000000" stroke="none">
<path d="M1815 4060 c-450 -40 -866 -230 -1194 -545 -222 -213 -402 -484 -495
-746 -216 -611 -141 -1275 201 -1794 275 -417 686 -717 1154 -844 193 -53 302
-66 549 -65 217 0 245 2 365 28 620 130 1128 524 1413 1093 122 242 183 496
198 813 25 565 -181 1076 -606 1500 -264 264 -555 426 -925 515 -182 43 -463
62 -660 45z m380 -120 c465 -54 857 -245 1176 -577 275 -285 445 -637 505
-1045 13 -88 15 -156 11 -308 -6 -220 -30 -360 -93 -550 -228 -683 -847 -1185
-1567 -1270 -161 -19 -439 -8 -592 24 -305 64 -590 198 -819 385 -105 86 -272
264 -348 371 -81 114 -215 379 -258 509 -99 303 -117 661 -49 976 83 387 304
763 599 1021 401 349 933 521 1435 464z"/>
<path d="M1785 3877 c-31 -31 -35 -41 -35 -87 0 -48 -2 -51 -17 -39 -9 8 -39
21 -67 29 -43 13 -51 20 -54 43 -3 25 -1 27 33 27 22 0 38 -6 41 -15 8 -21 34
-19 34 3 0 10 -6 26 -13 36 -18 25 -83 12 -118 -24 -48 -47 -21 -93 66 -114
30 -8 65 -32 65 -47 0 -16 -33 -39 -56 -39 -16 0 -28 8 -36 25 -6 14 -17 25
-25 25 -14 0 -16 -13 -7 -47 14 -52 135 -32 157 26 l11 30 29 -25 c18 -15 41
-24 63 -24 42 0 94 25 94 46 0 13 -3 13 -30 -1 -41 -21 -67 -19 -95 9 -32 32
-41 83 -21 129 13 33 19 37 51 37 29 0 37 -5 46 -27 13 -34 32 -18 27 23 -3
27 -6 29 -56 32 -49 3 -56 0 -87 -31z"/>
<path d="M1950 3900 c0 -5 7 -10 15 -10 23 0 22 -188 -2 -205 -13 -10 5 -13
98 -19 63 -4 148 -13 189 -20 80 -14 93 -13 67 7 -15 11 -14 18 2 87 21 85 16
89 66 -57 24 -69 32 -83 50 -83 17 0 23 11 39 71 33 129 37 139 51 139 26 0
16 19 -12 26 -16 3 -36 8 -45 11 -21 5 -24 -12 -4 -20 13 -5 13 -13 0 -59 -7
-29 -14 -63 -14 -76 0 -43 -18 -13 -46 79 -26 85 -31 93 -62 106 -25 10 -38
11 -45 4 -8 -8 -8 -11 1 -11 17 0 15 -24 -9 -117 -14 -52 -27 -83 -36 -83 -7
0 -13 11 -13 25 0 16 -6 25 -15 25 -8 0 -15 -7 -15 -15 0 -11 -11 -15 -40 -15
l-40 0 0 41 0 40 45 -7 c37 -5 45 -3 45 9 0 11 -12 17 -37 19 -35 3 -38 6 -41
37 -4 42 4 50 46 44 23 -4 32 -11 32 -24 0 -11 6 -19 14 -19 16 0 29 52 14 61
-13 9 -160 20 -167 13 -3 -3 0 -9 8 -13 12 -8 11 -47 -5 -163 -6 -37 -22 -52
-49 -42 -12 5 -15 26 -15 105 0 81 3 99 15 99 8 0 15 5 15 10 0 6 -22 10 -50
10 -27 0 -50 -4 -50 -10z"/>
<path d="M1365 3790 c-16 -4 -52 -17 -80 -29 -43 -20 -47 -24 -30 -31 25 -9
90 -163 80 -188 -6 -15 -9 -15 -22 6 -21 30 -33 28 -33 -6 0 -20 -8 -32 -30
-45 l-30 -18 -20 33 c-19 31 -19 34 -3 45 53 36 58 42 47 53 -8 8 -18 5 -36
-10 -35 -27 -45 -25 -63 10 -20 38 -20 37 14 54 25 14 30 14 41 1 25 -30 41 6
17 39 -12 16 -17 14 -81 -23 -84 -49 -98 -61 -69 -61 30 0 119 -157 104 -182
-16 -26 -7 -23 84 31 45 26 103 56 129 66 44 17 66 43 27 32 -13 -3 -23 4 -34
28 -26 55 4 62 64 14 33 -26 43 -29 66 -22 15 5 29 15 31 23 3 8 0 10 -7 5 -7
-4 -30 5 -52 20 -30 20 -39 31 -34 43 16 37 17 63 2 86 -18 28 -41 35 -82 26z"/>
<path d="M2567 3772 c-33 -21 -67 -86 -67 -131 0 -24 9 -42 34 -67 29 -29 41
-34 80 -34 34 0 46 4 46 15 0 10 -11 15 -35 15 -68 0 -94 62 -59 136 9 19 29
41 44 49 25 13 30 13 54 -6 20 -16 25 -26 20 -45 -8 -31 20 -34 36 -4 16 30 4
56 -34 74 -44 21 -84 20 -119 -2z"/>
<path d="M2764 3714 c4 -10 -12 -50 -39 -100 -36 -66 -51 -84 -68 -84 -18 -1
-15 -5 18 -25 22 -14 59 -35 83 -47 l43 -23 19 25 c22 29 11 47 -17 30 -15
-10 -25 -9 -51 4 l-32 17 16 32 c9 18 18 34 20 36 2 2 18 -6 37 -18 32 -19 47
-19 47 1 0 5 -16 16 -35 25 l-34 16 21 38 21 38 29 -20 c15 -11 28 -29 28 -39
0 -30 16 -32 35 -4 19 30 24 25 -72 79 -69 39 -78 42 -69 19z"/>
<path d="M960 3569 c-111 -86 -170 -140 -170 -156 0 -12 3 -13 14 -4 11 9 26
-1 75 -48 37 -35 61 -67 61 -80 0 -29 -35 -61 -66 -61 -34 0 -137 96 -131 122
8 27 -5 22 -44 -18 -26 -28 -29 -35 -14 -30 16 5 32 -5 65 -40 82 -84 131 -95
186 -40 53 53 48 84 -26 160 -33 35 -60 70 -60 79 0 21 14 22 30 2 12 -14 40
-21 40 -9 0 3 -4 13 -10 23 -7 14 -5 23 9 36 19 16 22 13 80 -60 50 -64 59
-80 50 -96 -14 -27 -4 -24 47 13 49 35 57 52 20 42 -21 -5 -32 4 -82 70 -31
42 -55 78 -53 79 2 2 12 9 22 16 15 12 20 11 36 -3 26 -24 36 -4 15 29 -9 14
-19 25 -23 25 -3 0 -35 -23 -71 -51z"/>
<path d="M2990 3530 c-25 -25 -25 -53 0 -109 24 -52 18 -81 -15 -81 -34 0 -60
41 -45 70 6 12 9 25 5 28 -8 8 -35 -9 -48 -30 -14 -22 26 -76 70 -94 29 -12
37 -12 61 0 l27 14 -3 -49 c-4 -45 -1 -52 31 -84 28 -28 43 -35 75 -35 l41 0
-6 -35 c-8 -47 12 -90 54 -115 49 -29 60 -15 18 24 -39 37 -42 53 -19 97 17
34 93 74 123 64 10 -3 23 -17 30 -31 10 -22 9 -30 -5 -46 -27 -29 -3 -46 31
-24 35 23 28 59 -21 104 -31 30 -41 33 -80 30 -36 -3 -43 0 -38 12 34 86 -16
170 -101 170 -34 0 -95 -29 -102 -47 -7 -19 -45 82 -47 122 -1 24 4 31 21 33
28 4 56 -34 43 -59 -13 -24 -13 -29 3 -29 8 0 22 9 33 21 22 24 13 43 -36 77
-41 27 -74 28 -100 2z m240 -170 c25 -25 25 -56 0 -97 -21 -36 -52 -58 -91
-68 -21 -5 -30 -2 -43 16 -34 48 -14 108 49 149 38 25 60 25 85 0z"/>
<path d="M1810 3464 c-201 -38 -321 -74 -444 -136 -253 -127 -471 -335 -609
-581 -201 -359 -232 -814 -81 -1195 13 -35 22 -67 19 -72 -3 -5 -22 -14 -43
-21 -73 -23 -97 -71 -58 -116 32 -38 71 -34 112 11 18 20 35 36 38 36 2 0 23
-30 47 -67 220 -353 562 -580 979 -654 106 -19 353 -17 468 5 594 110 1051
575 1147 1171 21 128 19 319 -5 457 -24 142 -65 262 -135 403 -185 370 -548
648 -965 740 -73 16 -411 30 -470 19z m465 -43 c289 -64 525 -197 723 -405 45
-48 102 -115 126 -150 43 -60 135 -223 136 -239 0 -4 -12 0 -26 10 -33 21
-172 30 -231 14 -111 -30 -192 -124 -200 -234 -11 -128 41 -187 261 -296 155
-78 186 -108 186 -184 0 -58 -23 -105 -65 -133 -20 -13 -49 -18 -118 -18 -89
-1 -94 0 -159 37 -43 24 -81 55 -103 84 -37 49 -44 44 -20 -14 8 -19 15 -45
15 -56 0 -31 81 -102 147 -128 80 -31 217 -32 283 -1 54 25 81 47 105 85 10
15 19 26 21 24 6 -6 -42 -184 -66 -245 -26 -68 -91 -197 -130 -258 -94 -149
-276 -329 -430 -426 -424 -269 -988 -281 -1423 -32 -181 104 -354 266 -470
440 -37 55 -67 103 -67 107 0 3 91 70 203 150 111 80 209 156 216 170 19 36
66 45 100 20 52 -40 32 -113 -36 -129 -16 -4 -72 -38 -126 -76 -53 -38 -112
-74 -130 -80 -48 -16 -67 -37 -67 -73 0 -40 30 -68 71 -68 23 0 40 10 67 40
20 23 65 60 100 83 34 24 62 47 62 51 0 18 41 49 64 49 37 0 76 -37 76 -71 0
-28 -30 -69 -50 -69 -5 0 -10 -4 -10 -9 0 -13 151 -60 232 -71 249 -36 538 83
697 287 l58 75 84 2 c102 4 159 26 211 84 65 71 86 196 48 279 -30 68 -96 123
-230 192 -67 35 -137 77 -156 93 -30 26 -34 36 -34 78 0 37 6 55 25 79 50 58
190 86 248 48 36 -24 49 -76 32 -133 -14 -46 -4 -60 16 -23 9 17 13 19 20 8
11 -19 39 49 39 95 0 109 -82 175 -215 176 -88 0 -131 -12 -191 -53 -63 -42
-103 -108 -111 -180 -9 -84 11 -140 65 -187 25 -22 49 -40 53 -40 5 0 9 -4 9
-10 0 -5 -10 -10 -22 -10 -35 0 -107 -40 -132 -74 -14 -17 -32 -60 -41 -96
-34 -132 -104 -221 -215 -274 -59 -28 -74 -31 -165 -31 -93 0 -105 2 -167 33
-83 40 -158 119 -189 200 -18 44 -23 77 -24 147 0 82 3 96 33 157 78 159 217
235 404 221 66 -5 82 -3 123 17 58 28 96 83 103 149 6 61 -9 107 -50 150 -43
46 -86 62 -187 68 -365 23 -701 -222 -790 -576 -22 -87 -30 -284 -12 -295 10
-7 65 33 106 79 37 39 71 45 103 18 32 -27 37 -64 12 -96 -12 -15 -31 -27 -44
-27 -12 0 -77 -38 -143 -85 -73 -51 -131 -85 -146 -85 -39 0 -70 -32 -70 -70
0 -77 106 -96 133 -24 5 13 31 39 57 57 26 17 63 49 83 71 45 47 83 51 117 12
13 -15 23 -36 23 -47 0 -26 -44 -69 -70 -69 -12 0 -87 -47 -168 -105 l-146
-105 -14 26 c-27 52 -62 169 -84 278 -28 142 -30 367 -4 501 54 290 180 529
386 735 220 220 461 343 775 396 115 19 374 12 490 -15z m954 -896 c26 -26 31
-61 18 -130 -7 -39 -7 -40 10 -19 10 11 23 19 29 17 6 -2 17 11 26 29 l15 33
16 -75 c25 -113 37 -207 36 -290 -1 -75 -1 -75 -15 -41 -27 60 -105 124 -233
191 -132 68 -176 102 -187 144 -10 42 12 102 48 128 73 51 191 58 237 13z
m-747 -485 c33 -29 41 -43 45 -81 11 -95 -32 -156 -119 -170 -28 -5 -53 -7
-55 -6 -1 2 7 31 17 66 33 104 36 160 11 216 -11 26 -21 50 -21 52 0 9 85 -44
122 -77z"/>
<path d="M650 3247 c-28 -14 -100 -105 -100 -126 0 -10 3 -11 13 -3 9 8 32 -3
87 -44 80 -58 90 -73 65 -94 -14 -12 -28 -8 -101 28 -50 25 -84 48 -84 57 0
25 -15 17 -32 -17 l-16 -33 71 -74 72 -73 -70 6 c-38 4 -84 9 -102 12 -29 6
-34 3 -49 -30 -10 -20 -14 -39 -9 -43 4 -5 10 -2 12 5 7 20 181 -77 185 -103
3 -16 8 -11 27 23 23 45 22 64 -3 43 -11 -9 -29 -4 -87 25 l-74 36 60 -7 c33
-3 78 -8 101 -11 64 -9 66 17 7 80 -95 100 -96 102 -15 61 54 -28 72 -42 72
-57 0 -17 3 -18 15 -8 8 6 17 21 21 33 4 12 24 45 45 73 42 55 53 90 20 60
-18 -17 -21 -17 -45 -1 -31 21 -31 20 -6 52 54 69 -6 167 -80 130z"/>
<path d="M3450 3081 c0 -25 -152 -115 -180 -106 -14 5 -6 -19 40 -108 31 -63
59 -120 62 -127 3 -9 14 -10 36 -5 38 8 44 35 7 35 -17 0 -29 9 -40 31 -9 17
-15 32 -13 34 9 8 70 36 72 33 1 -2 8 -18 15 -35 8 -18 20 -33 27 -33 18 0 18
21 -1 46 -22 29 -18 39 18 52 45 16 44 16 56 -19 9 -27 8 -34 -6 -44 -9 -7
-13 -17 -9 -23 9 -15 69 6 63 22 -36 84 -72 156 -80 156 -5 0 -6 -7 -3 -16 4
-11 -15 -25 -82 -55 -88 -41 -113 -42 -120 -7 -4 23 151 112 179 103 12 -4 20
-3 17 1 -36 80 -58 104 -58 65z"/>
<path d="M3568 2789 c-26 -14 -22 -29 6 -29 26 0 46 -35 29 -50 -4 -4 -45 -18
-90 -30 -71 -20 -84 -22 -99 -9 -16 13 -17 11 -11 -16 3 -16 11 -43 18 -60 12
-30 12 -30 18 -6 5 20 21 29 96 52 67 21 91 25 97 16 14 -22 8 -46 -12 -52
-26 -8 -16 -25 16 -25 37 0 29 -14 -33 -63 -56 -45 -124 -70 -131 -48 -2 6 -8
11 -13 11 -5 0 -6 -18 -3 -42 7 -47 24 -76 24 -41 0 33 60 36 145 6 39 -13 72
-28 73 -33 8 -22 19 -8 15 18 -8 49 -13 58 -22 43 -7 -11 -18 -11 -61 -1 l-53
13 24 19 c60 48 70 52 81 37 19 -27 -1 83 -34 194 -34 110 -41 119 -80 96z"/>
<path d="M364 2716 c-79 -79 -18 -197 103 -200 54 -1 93 28 113 82 13 37 12
45 -3 77 -23 48 -70 75 -130 75 -42 0 -54 -5 -83 -34z m141 -29 c59 -29 70
-63 30 -102 -29 -30 -75 -33 -124 -7 -48 24 -64 50 -48 82 23 46 81 57 142 27z"/>
<path d="M301 2511 c-6 -11 -11 -41 -11 -66 0 -38 5 -52 28 -75 95 -94 242
-31 216 92 -13 59 -38 65 -29 7 6 -39 4 -47 -20 -69 -32 -30 -99 -33 -140 -6
-33 22 -38 36 -26 69 8 20 18 27 36 27 20 0 26 4 23 18 -5 26 -64 29 -77 3z"/>
<path d="M3586 2123 c-3 -3 -6 -19 -6 -35 0 -22 -8 -33 -30 -46 -16 -9 -30
-19 -30 -22 0 -4 16 -12 35 -19 28 -10 36 -19 41 -47 l6 -35 29 26 c22 22 35
27 63 23 41 -5 42 -2 20 30 -15 22 -14 43 2 87 6 14 2 15 -29 10 -28 -6 -43
-2 -65 14 -16 11 -32 18 -36 14z"/>
<path d="M324 1881 c-5 -31 -12 -42 -35 -51 -37 -16 -36 -23 3 -41 23 -10 35
-24 41 -48 l8 -34 29 28 c23 22 36 27 64 23 20 -2 36 -3 36 -1 0 1 -9 17 -19
34 -18 29 -18 35 -5 60 20 39 18 41 -21 33 -26 -5 -41 -1 -64 16 l-31 21 -6
-40z"/>
<path d="M3606 1743 c-3 -3 -6 -21 -6 -38 0 -27 -5 -35 -30 -45 -38 -16 -38
-23 2 -41 25 -10 35 -24 43 -53 l11 -39 24 32 c21 30 26 33 61 27 43 -7 47 -1
23 32 -15 22 -14 43 2 85 4 13 -1 14 -31 7 -30 -7 -40 -4 -64 16 -16 13 -31
21 -35 17z"/>
<path d="M357 1533 c-4 -3 -7 -20 -7 -37 0 -26 -7 -35 -35 -50 l-35 -19 40
-18 c27 -12 40 -24 40 -38 0 -46 11 -52 38 -20 22 26 31 30 64 27 21 -2 38 -2
38 0 0 2 -9 17 -20 33 -20 27 -20 30 -5 60 9 17 15 33 13 35 -3 2 -20 -1 -38
-6 -30 -9 -37 -7 -60 15 -15 14 -29 22 -33 18z"/>
<path d="M3400 1394 c0 -35 -4 -42 -36 -61 l-36 -20 41 -16 c31 -13 41 -22 41
-39 0 -43 14 -50 40 -23 17 18 34 25 62 25 l39 0 -22 31 c-21 30 -21 32 -5 66
l17 36 -42 -7 c-37 -6 -46 -3 -71 21 l-28 27 0 -40z"/>
<path d="M596 1224 c-3 -9 -6 -24 -6 -35 0 -12 -13 -27 -30 -37 -16 -9 -30
-19 -30 -22 0 -4 16 -12 35 -19 25 -9 35 -18 35 -34 0 -42 14 -49 40 -22 17
18 34 25 63 25 l39 0 -20 33 c-18 28 -19 35 -7 57 21 38 18 43 -20 36 -27 -5
-42 -2 -64 13 -25 18 -30 19 -35 5z"/>
<path d="M3184 1039 c-4 -6 12 -28 37 -50 49 -42 47 -44 -36 -28 -49 9 -60 8
-74 -5 -14 -15 -11 -20 38 -64 68 -59 80 -67 93 -54 6 6 -8 24 -39 52 -40 35
-44 41 -23 37 78 -17 126 -19 138 -4 11 12 2 24 -51 71 -69 60 -72 62 -83 45z"/>
<path d="M3018 860 c-45 -23 -57 -60 -35 -104 9 -20 30 -42 46 -51 27 -13 35
-14 63 -2 63 27 74 94 22 142 -34 32 -58 36 -96 15z"/>
<path d="M1028 783 c-42 -44 -45 -75 -10 -114 53 -60 135 -31 149 53 5 31 1
41 -22 62 -38 35 -83 35 -117 -1z"/>
<path d="M1198 644 c-21 -36 -38 -70 -38 -75 0 -15 57 -39 93 -39 56 0 98 61
78 114 -10 24 -64 66 -86 66 -5 0 -27 -30 -47 -66z"/>
<path d="M1545 557 c-35 -106 -44 -151 -33 -158 29 -18 89 -21 112 -5 35 22
51 78 34 113 -15 32 -106 72 -113 50z"/>
<path d="M2175 489 c-7 -11 2 -131 12 -156 3 -7 12 -13 20 -13 12 0 14 8 10
35 -7 44 9 46 43 5 18 -22 30 -29 43 -24 16 6 15 10 -13 39 -27 28 -29 33 -15
45 19 16 19 44 -1 64 -18 18 -89 22 -99 5z"/>
<path d="M1973 464 c-22 -22 -25 -32 -20 -72 8 -71 57 -100 121 -71 51 24 55
133 6 159 -34 18 -79 11 -107 -16z"/>
</g>
</svg>
